<svg width="20" height="20" viewBox="0 0 20 20" fill="none" xmlns="http://www.w3.org/2000/svg">
<path fill-rule="evenodd" clip-rule="evenodd" d="M4 10C4 9.80109 4.07902 9.61032 4.21967 9.46967C4.36032 9.32902 4.55109 9.25 4.75 9.25H13.4395L10.219 6.031C10.0782 5.89017 9.99905 5.69916 9.99905 5.5C9.99905 5.30084 10.0782 5.10983 10.219 4.969C10.3598 4.82817 10.5508 4.74905 10.75 4.74905C10.9492 4.74905 11.1402 4.82817 11.281 4.969L15.781 9.469C15.8508 9.53867 15.9063 9.62143 15.9441 9.71255C15.9819 9.80367 16.0013 9.90135 16.0013 10C16.0013 10.0987 15.9819 10.1963 15.9441 10.2875C15.9063 10.3786 15.8508 10.4613 15.781 10.531L11.281 15.031C11.1402 15.1718 10.9492 15.2509 10.75 15.2509C10.5508 15.2509 10.3598 15.1718 10.219 15.031C10.0782 14.8902 9.99905 14.6992 9.99905 14.5C9.99905 14.3008 10.0782 14.1098 10.219 13.969L13.4395 10.75H4.75C4.55109 10.75 4.36032 10.671 4.21967 10.5303C4.07902 10.3897 4 10.1989 4 10Z" fill="white"/>
</svg>
