<svg width="16" height="16" viewBox="0 0 16 16" fill="none" xmlns="http://www.w3.org/2000/svg">
<path fill-rule="evenodd" clip-rule="evenodd" d="M3.20001 7.89965C3.20001 7.74251 3.26323 7.59182 3.37575 7.48071C3.48827 7.3696 3.64088 7.30717 3.80001 7.30717H10.7516L8.17521 4.76428C8.06255 4.65303 7.99925 4.50214 7.99925 4.34481C7.99925 4.18748 8.06255 4.03659 8.17521 3.92534C8.28788 3.81409 8.44068 3.75159 8.60001 3.75159C8.75934 3.75159 8.91215 3.81409 9.02481 3.92534L12.6248 7.48018C12.6807 7.53521 12.725 7.60059 12.7553 7.67257C12.7855 7.74455 12.8011 7.82172 12.8011 7.89965C12.8011 7.97758 12.7855 8.05474 12.7553 8.12672C12.725 8.1987 12.6807 8.26408 12.6248 8.31912L9.02481 11.874C8.91215 11.9852 8.75934 12.0477 8.60001 12.0477C8.44068 12.0477 8.28788 11.9852 8.17521 11.874C8.06255 11.7627 7.99925 11.6118 7.99925 11.4545C7.99925 11.2972 8.06255 11.1463 8.17521 11.035L10.7516 8.49212H3.80001C3.64088 8.49212 3.48827 8.4297 3.37575 8.31859C3.26323 8.20748 3.20001 8.05678 3.20001 7.89965Z" fill="#D50302"/>
</svg>
