<svg width="36" height="28" viewBox="0 0 36 28" fill="none" xmlns="http://www.w3.org/2000/svg">
<g clip-path="url(#clip0_25_234)">
<path d="M0.112778 3.62833C0.340178 2.59756 0.899189 1.67722 1.69826 1.01806C2.49733 0.358867 3.48907 -6.99898e-05 4.51111 1.02366e-08H31.5778C32.5998 -6.99898e-05 33.5915 0.358867 34.3907 1.01806C35.1896 1.67722 35.7488 2.59756 35.9761 3.62833L18.0444 14.966L0.112778 3.62833ZM0 6.293V22.869L13.089 14.567L0 6.293ZM15.2498 15.9367L0.430811 25.333C0.796949 26.1317 1.37482 26.8063 2.09717 27.2785C2.81953 27.7506 3.65664 28.0009 4.51111 28H31.5778C32.4322 28.0002 33.269 27.7494 33.9908 27.2769C34.7128 26.8044 35.2902 26.1294 35.6558 25.3307L20.8368 15.9343L18.0444 17.7007L15.2498 15.9367ZM22.9999 14.5693L36.0889 22.869V6.293L22.9999 14.567V14.5693Z" fill="#D50302"/>
</g>
<defs>
<clipPath id="clip0_25_234">
<rect width="36" height="28" fill="white"/>
</clipPath>
</defs>
</svg>
