<svg width="22" height="28" viewBox="0 0 22 28" fill="none" xmlns="http://www.w3.org/2000/svg">
<g clip-path="url(#clip0_22_205)">
<mask id="mask0_22_205" style="mask-type:luminance" maskUnits="userSpaceOnUse" x="-4" y="0" width="30" height="28">
<path d="M25.1429 0H-3.14286V28H25.1429V0Z" fill="white"/>
</mask>
<g mask="url(#mask0_22_205)">
<path d="M11 28C11 28 21.6071 18.0495 21.6071 10.5C21.6071 7.71523 20.4897 5.04451 18.5003 3.07538C16.5111 1.10625 13.8132 0 11 0C8.18681 0 5.48885 1.10625 3.49962 3.07538C1.51039 5.04451 0.392857 7.71523 0.392857 10.5C0.392857 18.0495 11 28 11 28ZM11 15.75C9.5934 15.75 8.24442 15.1969 7.24981 14.2123C6.2552 13.2277 5.69643 11.8924 5.69643 10.5C5.69643 9.10761 6.2552 7.77226 7.24981 6.78769C8.24442 5.80312 9.5934 5.25 11 5.25C12.4066 5.25 13.7556 5.80312 14.7502 6.78769C15.7448 7.77226 16.3036 9.10761 16.3036 10.5C16.3036 11.8924 15.7448 13.2277 14.7502 14.2123C13.7556 15.1969 12.4066 15.75 11 15.75Z" fill="#D50302"/>
</g>
</g>
<defs>
<clipPath id="clip0_22_205">
<rect width="22" height="28" fill="white"/>
</clipPath>
</defs>
</svg>
