<svg width="28" height="28" viewBox="0 0 28 28" fill="none" xmlns="http://www.w3.org/2000/svg">
<g clip-path="url(#clip0_25_224)">
<path fill-rule="evenodd" clip-rule="evenodd" d="M3.29946 0.892842C3.60567 0.587083 3.97333 0.349892 4.37813 0.19699C4.78291 0.0440882 5.21558 -0.0210342 5.64743 0.00593839C6.07928 0.0329111 6.50049 0.151363 6.8831 0.353444C7.26572 0.555525 7.60103 0.836622 7.86681 1.17811L11.008 5.21381C11.5837 5.95409 11.7867 6.91839 11.5592 7.82844L10.602 11.6611C10.5525 11.8596 10.5552 12.0676 10.6097 12.2647C10.6643 12.4619 10.7689 12.6416 10.9135 12.7864L15.2131 17.0864C15.358 17.2312 15.538 17.336 15.7355 17.3906C15.933 17.4452 16.1413 17.4477 16.34 17.3979L20.1707 16.4406C20.6197 16.3283 21.0884 16.3196 21.5414 16.4151C21.9943 16.5106 22.4196 16.7078 22.7851 16.9919L26.8205 20.1314C28.2712 21.2603 28.4042 23.4041 27.1057 24.7009L25.2963 26.5105C24.0013 27.8056 22.0659 28.3743 20.2617 27.7391C15.6439 26.1143 11.4512 23.4704 7.99456 20.0037C4.52843 16.5474 1.88483 12.355 0.259816 7.73743C-0.373663 5.93484 0.195068 3.9975 1.49002 2.70244L3.29946 0.892842Z" fill="#D50302"/>
</g>
<defs>
<clipPath id="clip0_25_224">
<rect width="28" height="28" fill="white"/>
</clipPath>
</defs>
</svg>
